<?xml version="1.0" standalone="no"?>
<!DOCTYPE svg PUBLIC "-//W3C//DTD SVG 20010904//EN"
 "http://www.w3.org/TR/2001/REC-SVG-20010904/DTD/svg10.dtd">
<svg version="1.0" xmlns="http://www.w3.org/2000/svg"
 width="278.000000pt" height="278.000000pt" viewBox="0 0 278.000000 278.000000"
 preserveAspectRatio="xMidYMid meet">
<metadata>
Created by potrace 1.16, written by Peter Selinger 2001-2019
</metadata>
<g transform="translate(0.000000,278.000000) scale(0.100000,-0.100000)"
fill="#000000" stroke="none">
<path d="M1314 1890 c-23 -5 -64 -20 -90 -33 -138 -71 -197 -221 -196 -502 0
-232 37 -343 142 -438 112 -101 290 -113 485 -33 91 37 93 43 56 127 l-21 47
-58 -24 c-193 -78 -327 -72 -372 15 -42 84 -54 156 -54 326 1 217 24 309 91
352 27 18 101 20 348 10 l40 -2 8 63 c5 35 6 66 3 69 -21 21 -311 39 -382 23z"/>
<path d="M100 1365 l0 -515 85 0 85 0 0 440 0 440 181 0 182 0 -8 -440 -7
-440 86 0 86 0 0 515 0 515 -345 0 -345 0 0 -515z"/>
<path d="M1960 1365 l0 -515 85 0 85 0 2 265 3 265 197 -265 197 -265 107 0
c101 0 106 1 92 18 -8 9 -104 131 -212 270 -177 227 -196 255 -183 270 27 32
353 447 361 460 5 9 -16 12 -94 12 l-100 0 -183 -246 -182 -245 -3 245 -2 246
-85 0 -85 0 0 -515z"/>
</g>
</svg>
