<?xml version="1.0" standalone="no"?>
<!DOCTYPE svg PUBLIC "-//W3C//DTD SVG 20010904//EN"
 "http://www.w3.org/TR/2001/REC-SVG-20010904/DTD/svg10.dtd">
<svg version="1.0" xmlns="http://www.w3.org/2000/svg"
 width="72.000000pt" height="72.000000pt" viewBox="0 0 72.000000 72.000000"
 preserveAspectRatio="xMidYMid meet">
<metadata>
Created by potrace 1.14, written by Peter Selinger 2001-2017
</metadata>
<g transform="translate(0.000000,72.000000) scale(0.100000,-0.100000)"
fill="#000000" stroke="none">
<path d="M10 364 c0 -111 2 -133 16 -138 30 -11 35 5 32 107 -1 56 1 107 5
113 6 10 36 11 80 5 4 -1 7 -52 7 -115 0 -109 1 -115 20 -113 22 1 22 -1 22
156 -1 56 -3 106 -7 109 -3 4 -44 6 -91 7 l-84 0 0 -131z"/>
<path d="M313 490 c-40 -16 -57 -56 -57 -137 -1 -72 1 -76 32 -104 35 -31 85
-38 125 -18 29 16 28 14 21 32 -4 12 -11 14 -31 6 -13 -5 -37 -9 -52 -9 -37 0
-50 31 -47 114 2 75 11 86 66 85 53 -2 60 0 60 15 0 25 -70 35 -117 16z"/>
<path d="M499 492 c-7 -44 -2 -248 7 -260 20 -27 34 -3 34 59 0 70 4 70 63 -9
32 -44 48 -57 69 -58 l27 -1 -21 31 c-12 17 -25 33 -28 36 -3 3 -17 21 -32 41
l-27 36 49 61 c38 45 46 61 35 66 -25 9 -40 -2 -81 -59 -22 -30 -42 -55 -46
-55 -5 0 -8 24 -8 54 0 45 -3 54 -20 59 -11 3 -20 2 -21 -1z"/>
</g>
</svg>
